<?xml version="1.0" encoding="UTF-8" standalone="no"?>
<!-- Created with Inkscape (http://www.inkscape.org/) -->

<svg
   width="110.00001mm"
   height="84.199997mm"
   viewBox="0 0 110.00001 84.199998"
   version="1.1"
   id="svg1"
   xml:space="preserve"
   xmlns="http://www.w3.org/2000/svg"
   xmlns:svg="http://www.w3.org/2000/svg"><defs
     id="defs1" /><g
     id="layer1"><g
       id="g3"
       transform="translate(-31.220847,-25.929177)"><path
         style="opacity:1;fill:#fefae0;fill-opacity:1;stroke:none;stroke-width:0.3;stroke-opacity:1"
         d="M 47.640634,59.06495 37.101063,78.322436 53.886306,72.857475 70.845989,50.300004 66.676461,39.621862 50.177938,62.903435 Z"
         id="path1" /><path
         style="opacity:1;fill:#e0d7b8;fill-opacity:1;stroke:none;stroke-width:0.3"
         d="m 81.610593,37.539033 -26.038103,35.42286 18.95353,-7.728624 -0.36803,5.980483 12.052974,-10.396839 2.024163,15.273234 10.212826,-6.07249 6.716537,9.844794 13.89313,-7.176579 15.45725,7.176579 -5.88848,-13.985131 -2.66821,1.748142 -11.68495,-14.813195 -12.78903,11.868957 -14.445169,-19.229552 -2.85223,1.196097 z"
         id="path2" /><path
         style="opacity:1;fill:#fefae0;fill-opacity:1;stroke:none;stroke-width:0.3"
         d="m 97.8039,35.745137 7.72862,17.665425 6.44053,-7.084573 2.30018,4.784388 -12.421,11.684945 -11.408924,-14.813198 z"
         id="path3" /><text
         xml:space="preserve"
         style="font-style:normal;font-variant:normal;font-weight:normal;font-stretch:normal;font-size:25.4px;font-family:'Reem Kufi';-inkscape-font-specification:'Reem Kufi';text-align:start;writing-mode:lr-tb;direction:ltr;text-anchor:start;opacity:1;fill:#fefae0;fill-opacity:1;stroke:none;stroke-width:0.3;stroke-opacity:1"
         x="46.061829"
         y="100.39485"
         id="text3"><tspan
           id="tspan3"
           style="font-size:25.4px;fill:#fefae0;fill-opacity:1;stroke-width:0.3"
           x="46.061829"
           y="100.39485">PAPUK</tspan></text></g></g></svg>
